<svg width="20" height="20" viewBox="0 0 20 20" fill="none" xmlns="http://www.w3.org/2000/svg">
<path d="M15.8334 5H16.6667C17.1087 5 17.5326 5.17559 17.8452 5.48816C18.1578 5.80072 18.3334 6.22464 18.3334 6.66667C18.3334 7.77174 17.8944 8.83154 17.113 9.61294C16.3316 10.3943 15.2718 10.8333 14.1667 10.8333H10V12.5M4.16669 4.16667C4.16669 3.72464 4.34228 3.30072 4.65484 2.98816C4.9674 2.67559 5.39133 2.5 5.83335 2.5H14.1667C14.6087 2.5 15.0326 2.67559 15.3452 2.98816C15.6578 3.30072 15.8334 3.72464 15.8334 4.16667V5.83333C15.8334 6.27536 15.6578 6.69928 15.3452 7.01184C15.0326 7.3244 14.6087 7.5 14.1667 7.5H5.83335C5.39133 7.5 4.9674 7.3244 4.65484 7.01184C4.34228 6.69928 4.16669 6.27536 4.16669 5.83333V4.16667ZM8.33335 13.3333C8.33335 13.1123 8.42115 12.9004 8.57743 12.7441C8.73371 12.5878 8.94567 12.5 9.16669 12.5H10.8334C11.0544 12.5 11.2663 12.5878 11.4226 12.7441C11.5789 12.9004 11.6667 13.1123 11.6667 13.3333V16.6667C11.6667 16.8877 11.5789 17.0996 11.4226 17.2559C11.2663 17.4122 11.0544 17.5 10.8334 17.5H9.16669C8.94567 17.5 8.73371 17.4122 8.57743 17.2559C8.42115 17.0996 8.33335 16.8877 8.33335 16.6667V13.3333Z" stroke="#596773" stroke-width="1.5" stroke-linecap="round" stroke-linejoin="round"/>
</svg>
