<svg width="24" height="24" viewBox="0 0 24 24" fill="none" xmlns="http://www.w3.org/2000/svg">
<rect x="0.5" y="0.5" width="23" height="23" rx="11.5" fill="#F8F8FC"/>
<rect x="0.5" y="0.5" width="23" height="23" rx="11.5" stroke="#E9EAEC"/>
<path d="M14.3103 7.06641C14.3872 7.06776 14.461 7.09894 14.5154 7.15332C14.5695 7.20763 14.6009 7.28074 14.6023 7.35742C14.6037 7.43255 14.5753 7.50477 14.5252 7.56055L10.3797 11.708L10.0965 11.9902L10.3797 12.2734L14.532 16.4258C14.5876 16.4814 14.6189 16.5571 14.6189 16.6357C14.6189 16.6948 14.6014 16.7524 14.5691 16.8008L14.532 16.8457L14.5301 16.8477C14.5033 16.8747 14.4715 16.8965 14.4363 16.9111C14.4011 16.9258 14.3631 16.9327 14.325 16.9326H14.3211C14.2828 16.9328 14.2441 16.9258 14.2088 16.9111C14.1736 16.8965 14.1418 16.8747 14.115 16.8477L9.46756 12.2002C9.41219 12.1446 9.38162 12.0687 9.38162 11.9902C9.38173 11.9119 9.41233 11.8368 9.46756 11.7812L14.1033 7.14551C14.1595 7.09328 14.2336 7.06509 14.3103 7.06641Z" fill="#212121" stroke="#15172E" stroke-width="0.8"/>
</svg>
