<svg width="24" height="24" viewBox="0 0 24 24" fill="none" xmlns="http://www.w3.org/2000/svg">
<rect x="-0.5" y="0.5" width="23" height="23" rx="11.5" transform="matrix(-1 0 0 1 23 0)" fill="#F8F8FC"/>
<rect x="-0.5" y="0.5" width="23" height="23" rx="11.5" transform="matrix(-1 0 0 1 23 0)" stroke="#E9EAEC"/>
<path d="M9.6897 7.06641C9.61281 7.06776 9.539 7.09894 9.48462 7.15332C9.43048 7.20763 9.39909 7.28074 9.39771 7.35742C9.39638 7.43255 9.4247 7.50477 9.47485 7.56055L13.6204 11.708L13.9036 11.9902L13.6204 12.2734L9.46802 16.4258C9.41247 16.4814 9.38114 16.5571 9.3811 16.6357C9.3811 16.6948 9.3986 16.7524 9.43091 16.8008L9.46802 16.8457L9.46997 16.8477C9.49678 16.8747 9.52855 16.8965 9.56372 16.9111C9.59894 16.9258 9.63692 16.9327 9.67505 16.9326H9.67896C9.71724 16.9328 9.7559 16.9258 9.79126 16.9111C9.82641 16.8965 9.85822 16.8747 9.88501 16.8477L14.5325 12.2002C14.5878 12.1446 14.6184 12.0687 14.6184 11.9902C14.6183 11.9119 14.5877 11.8368 14.5325 11.7812L9.89673 7.14551C9.84054 7.09328 9.7664 7.06509 9.6897 7.06641Z" fill="#212121" stroke="#15172E" stroke-width="0.8"/>
</svg>
