<svg width="42" height="42" viewBox="0 0 42 42" fill="none" xmlns="http://www.w3.org/2000/svg">
<rect width="42" height="42" rx="8" fill="#FFECEB"/>
<path d="M28.5003 21.5717L21.0003 28.9997L13.5003 21.5717C13.0056 21.0903 12.6159 20.5117 12.3558 19.8723C12.0958 19.2329 11.9709 18.5466 11.989 17.8566C12.0072 17.1666 12.1681 16.4878 12.4615 15.863C12.7549 15.2382 13.1744 14.6809 13.6938 14.2263C14.2131 13.7716 14.821 13.4294 15.4791 13.2212C16.1372 13.013 16.8313 12.9433 17.5177 13.0165C18.204 13.0897 18.8678 13.3042 19.4672 13.6466C20.0666 13.9889 20.5885 14.4517 21.0003 15.0057C21.4138 14.4557 21.9364 13.997 22.5354 13.6583C23.1344 13.3196 23.7968 13.1081 24.4812 13.0372C25.1657 12.9663 25.8574 13.0374 26.5131 13.2461C27.1688 13.4548 27.7743 13.7966 28.2919 14.2501C28.8094 14.7035 29.2277 15.259 29.5207 15.8816C29.8137 16.5042 29.975 17.1806 29.9946 17.8684C30.0142 18.5562 29.8916 19.2407 29.6344 19.8789C29.3773 20.5172 28.9912 21.0955 28.5003 21.5777" stroke="#E2483D" stroke-width="1.5" stroke-linecap="round" stroke-linejoin="round"/>
</svg>
