<svg width="20" height="20" viewBox="0 0 20 20" fill="none" xmlns="http://www.w3.org/2000/svg">
<path d="M6.66667 7.50065H13.3333M6.66667 10.834H11.6667M9.99167 15.5057L6.66667 17.5007V15.0007H5C4.33696 15.0007 3.70107 14.7373 3.23223 14.2684C2.76339 13.7996 2.5 13.1637 2.5 12.5007V5.83398C2.5 5.17094 2.76339 4.53506 3.23223 4.06622C3.70107 3.59738 4.33696 3.33398 5 3.33398H15C15.663 3.33398 16.2989 3.59738 16.7678 4.06622C17.2366 4.53506 17.5 5.17094 17.5 5.83398V10.4173M15.8333 18.334V13.334M15.8333 13.334L18.3333 15.834M15.8333 13.334L13.3333 15.834" stroke="#1D2125" stroke-linecap="round" stroke-linejoin="round"/>
</svg>
