<svg width="9" height="13" viewBox="0 0 9 13" fill="none" xmlns="http://www.w3.org/2000/svg">
<path d="M4.5 6.5C3.43913 6.5 2.42172 6.92143 1.67157 7.67157C0.921428 8.42172 0.5 9.43913 0.5 10.5V11.8333C0.5 12.0101 0.570238 12.1797 0.695262 12.3047C0.820287 12.4298 0.989856 12.5 1.16667 12.5H7.83333C8.01014 12.5 8.17971 12.4298 8.30474 12.3047C8.42976 12.1797 8.5 12.0101 8.5 11.8333V10.5C8.5 9.43913 8.07857 8.42172 7.32843 7.67157C6.57828 6.92143 5.56087 6.5 4.5 6.5ZM4.5 6.5C3.43913 6.5 2.42172 6.07857 1.67157 5.32843C0.921428 4.57828 0.5 3.56087 0.5 2.5V1.16667C0.5 0.989856 0.570238 0.820286 0.695262 0.695262C0.820287 0.570238 0.989856 0.5 1.16667 0.5H7.83333C8.01014 0.5 8.17971 0.570238 8.30474 0.695262C8.42976 0.820286 8.5 0.989856 8.5 1.16667V2.5C8.5 3.56087 8.07857 4.57828 7.32843 5.32843C6.57828 6.07857 5.56087 6.5 4.5 6.5Z" stroke="#E56910" stroke-linecap="round" stroke-linejoin="round"/>
</svg>
