<svg width="20" height="20" viewBox="0 0 20 20" fill="none" xmlns="http://www.w3.org/2000/svg">
<path d="M11.6667 2.5V5.83333C11.6667 6.05435 11.7545 6.26631 11.9107 6.42259C12.067 6.57887 12.279 6.66667 12.5 6.66667H15.8333M11.6667 2.5H5.83332C5.3913 2.5 4.96737 2.67559 4.65481 2.98816C4.34225 3.30072 4.16666 3.72464 4.16666 4.16667V15.8333C4.16666 16.2754 4.34225 16.6993 4.65481 17.0118C4.96737 17.3244 5.3913 17.5 5.83332 17.5H14.1667C14.6087 17.5 15.0326 17.3244 15.3452 17.0118C15.6577 16.6993 15.8333 16.2754 15.8333 15.8333V6.66667M11.6667 2.5L15.8333 6.66667M9.16666 11.6667H9.99999V15H10.8333M9.99999 9.16667H10.0083" stroke="#1D2125" stroke-width="1.5" stroke-linecap="round" stroke-linejoin="round"/>
</svg>
