<svg width="14" height="17" viewBox="0 0 14 17" fill="none" xmlns="http://www.w3.org/2000/svg">
<path d="M8.25 0.75V4.08333C8.25 4.30435 8.3378 4.51631 8.49408 4.67259C8.65036 4.82887 8.86232 4.91667 9.08333 4.91667H12.4167M8.25 0.75H2.41667C1.97464 0.75 1.55072 0.925595 1.23816 1.23816C0.925595 1.55072 0.75 1.97464 0.75 2.41667V14.0833C0.75 14.5254 0.925595 14.9493 1.23816 15.2618C1.55072 15.5744 1.97464 15.75 2.41667 15.75H10.75C11.192 15.75 11.616 15.5744 11.9285 15.2618C12.2411 14.9493 12.4167 14.5254 12.4167 14.0833V4.91667M8.25 0.75L12.4167 4.91667M4.08333 10.75L5.75 12.4167L9.08333 9.08333" stroke="white" stroke-width="1.5" stroke-linecap="round" stroke-linejoin="round"/>
</svg>
