<svg width="16" height="16" viewBox="0 0 16 16" fill="none" xmlns="http://www.w3.org/2000/svg">
<path d="M5.25 6.91666L10.75 4.08332M5.25 9.08332L10.75 11.9167M0.5 8C0.5 8.66304 0.763392 9.29893 1.23223 9.76777C1.70107 10.2366 2.33696 10.5 3 10.5C3.66304 10.5 4.29893 10.2366 4.76777 9.76777C5.23661 9.29893 5.5 8.66304 5.5 8C5.5 7.33696 5.23661 6.70107 4.76777 6.23223C4.29893 5.76339 3.66304 5.5 3 5.5C2.33696 5.5 1.70107 5.76339 1.23223 6.23223C0.763392 6.70107 0.5 7.33696 0.5 8ZM10.5 3C10.5 3.66304 10.7634 4.29893 11.2322 4.76777C11.7011 5.23661 12.337 5.5 13 5.5C13.663 5.5 14.2989 5.23661 14.7678 4.76777C15.2366 4.29893 15.5 3.66304 15.5 3C15.5 2.33696 15.2366 1.70107 14.7678 1.23223C14.2989 0.763392 13.663 0.5 13 0.5C12.337 0.5 11.7011 0.763392 11.2322 1.23223C10.7634 1.70107 10.5 2.33696 10.5 3ZM10.5 13C10.5 13.663 10.7634 14.2989 11.2322 14.7678C11.7011 15.2366 12.337 15.5 13 15.5C13.663 15.5 14.2989 15.2366 14.7678 14.7678C15.2366 14.2989 15.5 13.663 15.5 13C15.5 12.337 15.2366 11.7011 14.7678 11.2322C14.2989 10.7634 13.663 10.5 13 10.5C12.337 10.5 11.7011 10.7634 11.2322 11.2322C10.7634 11.7011 10.5 12.337 10.5 13Z" stroke="#1D2125" stroke-linecap="round" stroke-linejoin="round"/>
</svg>
