<svg width="20" height="20" viewBox="0 0 20 20" fill="none" xmlns="http://www.w3.org/2000/svg">
<path d="M1.762 14.487C1.45534 14.3122 1.20027 14.0595 1.02258 13.7545C0.844878 13.4495 0.750851 13.103 0.75 12.75V2.75C0.75 1.65 1.65 0.75 2.75 0.75H12.75C13.5 0.75 13.908 1.135 14.25 1.75M4.75 7.417C4.75 6.70967 5.03099 6.03131 5.53115 5.53115C6.03131 5.03099 6.70967 4.75 7.417 4.75H16.083C16.4332 4.75 16.78 4.81898 17.1036 4.95301C17.4272 5.08704 17.7212 5.28349 17.9689 5.53115C18.2165 5.7788 18.413 6.07281 18.547 6.39638C18.681 6.71996 18.75 7.06676 18.75 7.417V16.083C18.75 16.4332 18.681 16.78 18.547 17.1036C18.413 17.4272 18.2165 17.7212 17.9689 17.9689C17.7212 18.2165 17.4272 18.413 17.1036 18.547C16.78 18.681 16.4332 18.75 16.083 18.75H7.417C7.06676 18.75 6.71996 18.681 6.39638 18.547C6.07281 18.413 5.7788 18.2165 5.53115 17.9689C5.28349 17.7212 5.08704 17.4272 4.95301 17.1036C4.81898 16.78 4.75 16.4332 4.75 16.083V7.417Z" stroke="#596773" stroke-width="1.5" stroke-linecap="round" stroke-linejoin="round"/>
</svg>
