<svg width="15" height="15" viewBox="0 0 15 15" fill="none" xmlns="http://www.w3.org/2000/svg">
<path d="M9.5 8.75L7.25 7.25V3.5M0.5 7.25C0.5 8.13642 0.674594 9.01417 1.01381 9.83311C1.35303 10.6521 1.85023 11.3962 2.47703 12.023C3.10382 12.6498 3.84794 13.147 4.66689 13.4862C5.48583 13.8254 6.36358 14 7.25 14C8.13642 14 9.01417 13.8254 9.83311 13.4862C10.6521 13.147 11.3962 12.6498 12.023 12.023C12.6498 11.3962 13.147 10.6521 13.4862 9.83311C13.8254 9.01417 14 8.13642 14 7.25C14 6.36358 13.8254 5.48583 13.4862 4.66689C13.147 3.84794 12.6498 3.10382 12.023 2.47703C11.3962 1.85023 10.6521 1.35303 9.83311 1.01381C9.01417 0.674594 8.13642 0.5 7.25 0.5C6.36358 0.5 5.48583 0.674594 4.66689 1.01381C3.84794 1.35303 3.10382 1.85023 2.47703 2.47703C1.85023 3.10382 1.35303 3.84794 1.01381 4.66689C0.674594 5.48583 0.5 6.36358 0.5 7.25Z" stroke="#596773" stroke-linecap="round" stroke-linejoin="round"/>
</svg>
