<svg width="32" height="32" viewBox="0 0 32 32" fill="none" xmlns="http://www.w3.org/2000/svg">
<circle cx="16" cy="16" r="16" fill="#F3F0FF"/>
<path d="M12.0494 20.6133C11.0096 20.6133 10.0124 20.2182 9.27718 19.5149C8.54195 18.8117 8.12891 17.8578 8.12891 16.8633C8.12891 15.8687 8.54195 14.9149 9.27718 14.2116C10.0124 13.5084 11.0096 13.1133 12.0494 13.1133C12.2949 12.0193 13.0133 11.0579 14.0465 10.4405C14.5581 10.1349 15.1316 9.9229 15.7342 9.81671C16.3368 9.71051 16.9567 9.71218 17.5586 9.82161C18.1605 9.93105 18.7326 10.1461 19.2421 10.4545C19.7516 10.7629 20.1887 11.1586 20.5283 11.6191C20.868 12.0795 21.1035 12.5956 21.2215 13.1379C21.3395 13.6803 21.3376 14.2382 21.216 14.7799H22.0494C22.8229 14.7799 23.5648 15.0872 24.1118 15.6342C24.6587 16.1812 24.966 16.9231 24.966 17.6966C24.966 18.4702 24.6587 19.212 24.1118 19.759C23.5648 20.306 22.8229 20.6133 22.0494 20.6133H21.216M13.7148 18.1139L16.2148 15.6139M16.2148 15.6139L18.7148 18.1139M16.2148 15.6139V23.1139" stroke="#7950F2" stroke-width="1.5" stroke-linecap="round" stroke-linejoin="round"/>
</svg>
