<svg width="16" height="16" viewBox="0 0 16 16" fill="none" xmlns="http://www.w3.org/2000/svg">
<path d="M10.5 4.66667H10.5083M0.5 11.3333L4.66667 7.16666C5.44 6.4225 6.39333 6.4225 7.16667 7.16666L11.3333 11.3333M9.66667 9.66666L10.5 8.83333C11.2733 8.08916 12.2267 8.08916 13 8.83333L15.5 11.3333M0.5 3C0.5 2.33696 0.763392 1.70107 1.23223 1.23223C1.70107 0.763392 2.33696 0.5 3 0.5H13C13.663 0.5 14.2989 0.763392 14.7678 1.23223C15.2366 1.70107 15.5 2.33696 15.5 3V13C15.5 13.663 15.2366 14.2989 14.7678 14.7678C14.2989 15.2366 13.663 15.5 13 15.5H3C2.33696 15.5 1.70107 15.2366 1.23223 14.7678C0.763392 14.2989 0.5 13.663 0.5 13V3Z" stroke="#1D2125" stroke-linecap="round" stroke-linejoin="round"/>
</svg>
